<?xml version="1.0" encoding="UTF-8" standalone="no"?>
<!-- Created with Inkscape (http://www.inkscape.org/) -->

<svg
   width="486.17145"
   height="273.04282"
   viewBox="0 0 486.17145 273.04282"
   version="1.1"
   id="svg1"
   xml:space="preserve"
   inkscape:export-filename="wikicine_logo_edit.svg"
   inkscape:export-xdpi="96"
   inkscape:export-ydpi="96"
   sodipodi:docname="wikicine_logo_edit.svg"
   xmlns:inkscape="http://www.inkscape.org/namespaces/inkscape"
   xmlns:sodipodi="http://sodipodi.sourceforge.net/DTD/sodipodi-0.dtd"
   xmlns="http://www.w3.org/2000/svg"
   xmlns:svg="http://www.w3.org/2000/svg"><sodipodi:namedview
     id="namedview1"
     pagecolor="#ffffff"
     bordercolor="#000000"
     borderopacity="0.25"
     inkscape:showpageshadow="2"
     inkscape:pageopacity="0.0"
     inkscape:pagecheckerboard="0"
     inkscape:deskcolor="#d1d1d1"
     inkscape:document-units="px"
     inkscape:export-bgcolor="#ffffff00" /><defs
     id="defs1" /><g
     inkscape:label="Calque 1"
     inkscape:groupmode="layer"
     id="layer1"
     transform="translate(-14.717468,-132.17547)"><path
       style="fill:#fbc124;fill-opacity:1;stroke:none;stroke-width:2.38379;stroke-opacity:1"
       d="M 438.08763,144.5614 C 368.915,115.31247 251.81679,138.31577 242.59934,276.12575 c 10.22249,151.51295 187.82199,163.18949 253.46581,68.75538 -15.2377,-13.75107 -29.73207,-28.43129 -45.71305,-41.25322 -31.66984,54.64733 -143.13788,62.45701 -145.31543,-39.76664 4.45166,-53.32059 48.33601,-73.1943 90.68277,-68.75538 z"
       id="path3"
       sodipodi:nodetypes="ccccccc" /><path
       style="fill:#101010;fill-opacity:1;stroke:none;stroke-width:2.38379;stroke-opacity:1"
       d="m 21.980534,137.44602 68.852745,-0.26281 19.578371,89.8765 27.33085,-89.35089 60.70604,-0.2628 -82.78097,267.00149 -67.013176,0.52558 17.870183,-55.97571 z"
       id="path1" /><path
       style="fill:#fbc124;fill-opacity:1;stroke:none;stroke-width:2.38379;stroke-opacity:1"
       d="m 470.97872,134.15517 c -1.63061,1.93986 -52.4357,62.38038 -53.88936,64.10974 -1.45365,1.72938 -2.19899,7.92995 0.90465,11.10444 3.10365,3.1745 10.31664,2.59324 11.54565,1.16006 1.22901,-1.43319 54.48143,-63.53151 55.93344,-65.22472 1.45201,-1.69321 0.79061,-9.25629 -3.71652,-11.70699 -4.50713,-2.45071 -9.14725,-1.38239 -10.77786,0.55747 z"
       id="path4"
       sodipodi:nodetypes="zzzzzzz" /><path
       style="fill:#101010;fill-opacity:1;stroke:none;stroke-width:2.38379;stroke-opacity:1"
       d="m 205.45015,404.7169 h -49.0579 l -9.10543,-42.18235 70.05616,-225.03452 h 68.9412 z"
       id="path2" /><path
       style="fill:#fbc124;fill-opacity:1;stroke:none;stroke-width:2.38379;stroke-opacity:1"
       d="m 486.83182,171.34679 c 1.83628,-2.17697 4.71049,-1.69718 8.8037,0.52559 2.89961,1.57458 7.41261,7.89606 4.07334,11.82586 l -40.8649,48.09179 c -2.34415,2.75872 -6.81333,2.29533 -10.24908,0.39421 -5.32925,-2.94882 -5.94894,-8.45356 -3.54775,-11.30027 z"
       id="path7"
       sodipodi:nodetypes="sssssss" /></g></svg>
